<!-- https://www.deutschlandfunk.de/ -->
<svg xmlns="http://www.w3.org/2000/svg" width="370" height="54.542" viewBox="0 0 370 54.542" class="brand-logo-df">
    <g id="DLF_Logo" data-name="DLF Logo" transform="translate(-395.22 -65.513)">
        <g id="Background" transform="translate(424.49 70.512)">
            <rect id="Rectangle_1" data-name="Rectangle 1" width="321.021" height="47.488" fill="rgba(0,0,0,0)"></rect>
        </g>
        <g id="Layer_1" data-name="Layer 1" transform="translate(395.22 65.513)">
            <path id="Path_1" data-name="Path 1" d="M0,54.546H54.546V.006H0Z" transform="translate(-.004 -.004)" fill="#198aff"></path>
            <path id="Path_2" data-name="Path 2" d="M108.5,54.544H419.324V0H108.5Z" transform="translate(-49.324 -.002)" fill="#198aff"></path>
            <path id="Path_3" data-name="Path 3" d="M54.727,32.349H22v7.038H54.727ZM22,28.794H51.641V24.258H22Zm0-7.76H43.522V18H22ZM49.568,42.945H22V47.1H49.568Zm-6.048,9.967H22V50.319H43.521Z" transform="translate(-10.002 -8.186)" fill="#fff"></path>
            <path id="Path_4" data-name="Path 4" d="M402.913,23.639h4.247V40.2l6.562-8.072h4.629l-7.121,8.422,7.719,9.931h-4.912l-6.877-9.019v9.019h-4.247Zm-21.687,8.493h4.247v2.913a6.318,6.318,0,0,1,5.93-3.3c3.683,0,6.278,2.142,6.278,7.194V50.485h-4.245V39.327c0-2.773-1.124-4.035-3.65-4.035a4.065,4.065,0,0,0-4.314,4.385V50.485h-4.247ZM359.47,43.887V32.132h4.245V43.4c0,2.772,1.156,4.035,3.614,4.035a4.092,4.092,0,0,0,4.279-4.385V32.132h4.246V50.485h-4.246V47.608a6.176,6.176,0,0,1-5.822,3.228c-3.613,0-6.315-2.07-6.315-6.95m-11.951-8.562h-2.492V32.132h2.492V29.677c0-4.037,2.243-6.213,6.174-6.213a7.194,7.194,0,0,1,2.423.352v3.3a5.847,5.847,0,0,0-1.93-.314c-1.722,0-2.422,1.122-2.422,2.7v2.63h4.175v3.192h-4.175v15.16h-4.245ZM337.271,41.4v-.281c0-4.037-1.86-6.036-4.951-6.036-3.123,0-4.945,2.176-4.945,6.142V41.5c0,4.037,2.034,5.966,4.772,5.966,2.948,0,5.124-1.966,5.124-6.071m-14.248.21v-.281c0-5.861,3.473-9.581,8.247-9.581a6.275,6.275,0,0,1,5.861,3.194v-11.3h4.246V50.485h-4.246V47.4a7.038,7.038,0,0,1-6.036,3.438c-4.6,0-8.072-3.265-8.072-9.23m-20.492-9.475h4.245v2.913a6.322,6.322,0,0,1,5.93-3.3c3.685,0,6.282,2.142,6.282,7.194V50.485h-4.246V39.327c0-2.773-1.124-4.035-3.65-4.035a4.067,4.067,0,0,0-4.316,4.385V50.485h-4.245ZM293.019,41.4v-.281c0-4.071-1.9-6.036-4.739-6.036-2.913,0-4.806,2.176-4.806,6.142V41.5c0,4.037,2.036,5.966,4.595,5.966,2.74,0,4.951-1.966,4.951-6.071m-13.9.21v-.281c0-5.861,3.687-9.581,8.106-9.581a6.135,6.135,0,0,1,5.651,3.16V32.132h4.247V50.485h-4.247V47.467a6.969,6.969,0,0,1-5.826,3.369c-4.281,0-7.931-3.265-7.931-9.23m-8.561-17.968h4.247V50.485h-4.247Zm-21.8,0h4.251V35.045a6.318,6.318,0,0,1,5.93-3.3c3.685,0,6.281,2.142,6.281,7.194V50.485h-4.247V39.327c0-2.773-1.122-4.035-3.648-4.035a4.067,4.067,0,0,0-4.315,4.385V50.485h-4.251Zm-21.756,17.9v-.281c0-5.825,4.139-9.511,9.263-9.511,4.072,0,7.9,1.824,8.388,6.879h-4.107c-.35-2.457-1.964-3.475-4.21-3.475-2.913,0-4.984,2.246-4.984,6.036v.281c0,4,1.965,6.106,5.087,6.106a4.177,4.177,0,0,0,4.422-3.929h3.9c-.316,4.21-3.51,7.194-8.493,7.194-5.262,0-9.263-3.438-9.263-9.3m-17.864,3.227h4c.212,1.86,1.158,2.95,3.65,2.95,2.282,0,3.3-.808,3.3-2.351,0-1.509-1.228-2.07-3.929-2.526-4.843-.773-6.632-2.141-6.632-5.58,0-3.687,3.438-5.511,6.877-5.511,3.756,0,6.738,1.4,7.194,5.545h-3.929c-.352-1.684-1.3-2.457-3.265-2.457-1.824,0-2.911.878-2.911,2.176,0,1.335.877,1.859,3.789,2.351,4.318.668,6.879,1.718,6.879,5.615,0,3.718-2.632,5.861-7.333,5.861-4.739,0-7.51-2.176-7.687-6.072m-10.792.6V35.324H195.9V32.132h2.456V28.1H202.6v4.037h4.035v3.192H202.6v9.651c0,1.614.771,2.353,2.1,2.353a5.2,5.2,0,0,0,2.07-.354v3.369a8.134,8.134,0,0,1-2.877.456c-3.65,0-5.545-1.964-5.545-5.437m-22.266-1.476V32.132h4.246V43.4c0,2.772,1.158,4.035,3.616,4.035a4.092,4.092,0,0,0,4.279-4.385V32.132h4.247V50.485h-4.247V47.608a6.181,6.181,0,0,1-5.825,3.228c-3.613,0-6.317-2.07-6.317-6.95M167.909,39.4c-.212-3.158-1.826-4.563-4.458-4.563-2.561,0-4.279,1.72-4.7,4.563Zm-13.581,2.1v-.279c0-5.686,3.895-9.476,9.122-9.476,4.563,0,8.669,2.7,8.669,9.265v1.228h-13.44c.14,3.475,1.9,5.44,5.053,5.44,2.563,0,3.9-1.016,4.212-2.807h4.106c-.6,3.86-3.722,5.966-8.422,5.966-5.4,0-9.3-3.544-9.3-9.336M137.9,46.8c5.615,0,8.318-3.228,8.318-8.772v-.281c0-5.4-2.457-8.668-8.353-8.668h-2.7V46.8Zm-7.4-21.406h7.616c8.737,0,12.982,4.984,12.982,12.284v.316c0,7.3-4.245,12.492-13.053,12.492H130.5Z" transform="translate(-57.759 -10.667)" fill="#fff"></path>
        </g>
    </g>
</svg>
